<svg width="85" height="85" viewBox="0 0 85 85" fill="none" xmlns="http://www.w3.org/2000/svg">
<path d="M39.9944 2.73169C41.3418 1.26268 43.6582 1.26268 45.0056 2.7317L48.1965 6.21047C49.1765 7.27897 50.7264 7.60839 52.0563 7.0309L56.3862 5.15072C58.2147 4.35676 60.3308 5.29891 60.9642 7.18897L62.4643 11.6648C62.925 13.0396 64.2069 13.9709 65.6567 13.9843L70.377 14.0278C72.3703 14.0462 73.9203 15.7675 73.7302 17.7518L73.2801 22.4509C73.1418 23.8942 73.934 25.2663 75.2531 25.8683L79.5476 27.8279C81.3611 28.6555 82.0769 30.8585 81.0962 32.5939L78.7737 36.7036C78.0604 37.9659 78.226 39.5416 79.1862 40.628L82.3124 44.165C83.6325 45.6586 83.3904 47.9623 81.7885 49.1488L77.9953 51.9586C76.8302 52.8216 76.3406 54.3285 76.7759 55.7115L78.1932 60.2142C78.7916 62.1156 77.6335 64.1217 75.6876 64.5541L71.0794 65.5781C69.664 65.8926 68.6038 67.07 68.439 68.5105L67.9023 73.2005C67.6757 75.1809 65.8017 76.5424 63.8481 76.146L59.2219 75.2071C57.801 74.9188 56.3535 75.5632 55.617 76.8122L53.2192 80.8783C52.2066 82.5954 49.9408 83.077 48.3174 81.9202L44.473 79.1809C43.2922 78.3395 41.7078 78.3395 40.527 79.1809L36.6826 81.9202C35.0592 83.077 32.7934 82.5954 31.7808 80.8783L29.383 76.8121C28.6465 75.5632 27.199 74.9188 25.7781 75.2071L21.1519 76.146C19.1983 76.5424 17.3243 75.1809 17.0977 73.2005L16.561 68.5105C16.3962 67.07 15.336 65.8926 13.9206 65.5781L9.31244 64.5541C7.36652 64.1217 6.20834 62.1156 6.80683 60.2142L8.22411 55.7115C8.65942 54.3285 8.1698 52.8216 7.00471 51.9586L3.21145 49.1488C1.60964 47.9623 1.36752 45.6586 2.68764 44.165L5.81382 40.628C6.77402 39.5416 6.93964 37.9659 6.2263 36.7036L3.90381 32.5939C2.92308 30.8585 3.63888 28.6555 5.45237 27.8279L9.74691 25.8682C11.066 25.2663 11.8582 23.8942 11.7199 22.4509L11.2698 17.7518C11.0797 15.7675 12.6297 14.0462 14.623 14.0278L19.3433 13.9843C20.7931 13.9709 22.075 13.0396 22.5357 11.6648L24.0358 7.18897C24.6692 5.2989 26.7853 4.35676 28.6138 5.15072L32.9437 7.0309C34.2736 7.60839 35.8235 7.27897 36.8035 6.21047L39.9944 2.73169Z" fill="#BBEDE9"/>
<g clip-path="url(#clip0_912_9922)">
<path d="M28.3936 41.2318C28.3936 44.4621 31.0114 47.0799 34.2417 47.0799H45.9342V52.7797H34.3899C30.1718 52.7797 26.4871 50.4879 24.5213 47.0799C23.5532 45.4104 23 43.4644 23 41.3899C23 39.3154 23.5828 37.2508 24.6102 35.5517C26.5958 32.2227 30.231 30 34.3899 30H42.3994V35.3739H35.6049C35.0616 35.3936 34.7159 35.3838 34.2417 35.3838C33.7675 35.3838 33.3131 35.443 32.8785 35.5517C30.3002 36.1642 28.3936 38.4757 28.3936 41.2318Z" fill="black"/>
<path d="M61.5097 47.0923V52.644C58.1116 52.6341 55.0591 51.1227 52.9945 48.7321C52.55 48.2283 52.145 47.6751 51.8091 47.0923C51.2361 46.1341 50.8015 45.0968 50.5348 43.9904C50.3668 43.2792 50.357 42.5482 50.4064 41.827C50.4064 41.6887 50.4162 41.5504 50.4162 41.4023C50.4162 40.9577 50.3668 40.5132 50.2681 40.0983C50.2681 40.0094 50.2384 39.9304 50.2088 39.8513C49.5272 37.2928 47.1958 35.4159 44.4299 35.4159C44.3706 35.4159 44.3015 35.4159 44.2422 35.4258V29.9531H44.4299C46.5439 29.9531 48.5196 30.5261 50.2088 31.5337C51.2658 32.156 52.2042 32.9463 52.9945 33.865C54.6936 35.8111 55.7308 38.3399 55.7802 41.1059C55.7802 44.3263 58.319 46.9638 61.5097 47.0923Z" fill="black"/>
</g>
<defs>
<clipPath id="clip0_912_9922">
<rect width="40.3239" height="22.7797" fill="white" transform="translate(23 30)"/>
</clipPath>
</defs>
</svg>
