<svg width="32" height="32" viewBox="0 0 32 32" fill="none" xmlns="http://www.w3.org/2000/svg">
<path d="M23 6C25.7614 6 28 8.23858 28 11V21L27.9932 21.2568C27.8595 23.8989 25.6753 26 23 26H9L8.74316 25.9932C6.10111 25.8595 4 23.6753 4 21V11C4 8.32472 6.10111 6.14053 8.74316 6.00684L9 6H23ZM9 9C7.89543 9 7 9.89543 7 11V21C7 22.1046 7.89543 23 9 23H23C24.1046 23 25 22.1046 25 21V11C25 9.89543 24.1046 9 23 9H9ZM13 12C14.1046 12 15 12.8954 15 14C15 15.1046 14.1046 16 13 16H12C10.8954 16 10 15.1046 10 14C10 12.8954 10.8954 12 12 12H13Z" fill="#C0C0C0"/>
</svg>
