<svg width="32" height="32" viewBox="0 0 32 32" fill="none" xmlns="http://www.w3.org/2000/svg">
<path d="M16 4C22.6274 4 28 9.37258 28 16C28 22.6274 22.6274 28 16 28C9.37258 28 4 22.6274 4 16C4 9.37258 9.37258 4 16 4ZM16 7C11.0294 7 7 11.0294 7 16C7 20.9706 11.0294 25 16 25C20.9706 25 25 20.9706 25 16C25 11.0294 20.9706 7 16 7ZM16 10.5C16.8284 10.5 17.5 11.1716 17.5 12V15.1709L20.6367 16.6416C21.3868 16.9932 21.71 17.8866 21.3584 18.6367C21.0068 19.3868 20.1134 19.71 19.3633 19.3584L15.9385 17.7529C15.0606 17.3413 14.5 16.4589 14.5 15.4893V12C14.5 11.1716 15.1716 10.5 16 10.5Z" fill="#C0C0C0"/>
</svg>
