<svg width="32" height="32" viewBox="0 0 32 32" fill="none" xmlns="http://www.w3.org/2000/svg">
<path d="M21.1747 11.8903C21.4232 12.1401 21.8356 12.1401 22.0692 11.8903L23.3114 10.5912C23.5748 10.3414 23.5599 9.89166 23.2816 9.62185C22.3054 8.76687 21.1705 8.11476 19.9423 7.70316L20.3349 5.80445C20.4194 5.38973 20.1113 5 19.6989 5H17.2938C17.1435 5.00162 16.9982 5.05512 16.8825 5.15153C16.7667 5.24795 16.6873 5.38143 16.6577 5.52964L16.3099 7.21849C13.1097 7.38337 10.3966 9.01726 10.3966 12.365C10.3966 15.263 12.6377 16.5072 15.008 17.3616C17.2491 18.221 18.4367 18.5408 18.4367 19.7499C18.4367 20.9941 17.254 21.7236 15.5049 21.7236C13.9147 21.7236 12.2451 21.189 10.9531 19.8848C10.8931 19.8244 10.8219 19.7765 10.7434 19.7438C10.665 19.7111 10.5809 19.6942 10.496 19.6942C10.411 19.6942 10.3269 19.7111 10.2485 19.7438C10.1701 19.7765 10.0988 19.8244 10.0388 19.8848L8.69711 21.2339C8.57088 21.3613 8.5 21.5338 8.5 21.7136C8.5 21.8934 8.57088 22.0659 8.69711 22.1933C9.74064 23.2276 11.0624 23.9771 12.5691 24.3918L12.2014 26.1756C12.1169 26.5903 12.42 26.975 12.8325 26.98L15.2425 27C15.3945 27.0007 15.5421 26.9482 15.6599 26.8516C15.7778 26.755 15.8586 26.6202 15.8885 26.4704L16.2363 24.7765C20.0865 24.5167 22.4319 22.3831 22.4319 19.2703C22.4319 16.4022 20.0964 15.193 17.264 14.2087C15.644 13.6041 14.2427 13.1894 14.2427 11.9453C14.2427 10.7361 15.5496 10.2564 16.8615 10.2564C18.5311 10.2564 20.1361 10.9509 21.1846 11.9003L21.1747 11.8903Z" fill="#C0C0C0"/>
</svg>
