<svg width="32" height="32" viewBox="0 0 32 32" fill="none" xmlns="http://www.w3.org/2000/svg">
<path d="M9.9999 15.0001C10.8283 15.0001 11.4999 15.6716 11.4999 16.5001V24.5001C11.4999 25.3285 10.8283 26.0001 9.9999 26.0001C9.1715 26 8.4999 25.3285 8.4999 24.5001V16.5001C8.4999 15.6717 9.1715 15.0001 9.9999 15.0001ZM15.9999 15.0001C16.8283 15.0001 17.4999 15.6716 17.4999 16.5001V24.5001C17.4999 25.3285 16.8283 26.0001 15.9999 26.0001C15.1715 26 14.4999 25.3285 14.4999 24.5001V16.5001C14.4999 15.6717 15.1715 15.0001 15.9999 15.0001ZM21.9999 15.0001C22.8283 15.0001 23.4999 15.6716 23.4999 16.5001V24.5001C23.4999 25.3285 22.8283 26.0001 21.9999 26.0001C21.1715 26 20.4999 25.3285 20.4999 24.5001V16.5001C20.4999 15.6717 21.1715 15.0001 21.9999 15.0001ZM14.8378 5.46296C15.617 5.05362 16.5595 5.08307 17.3153 5.55085L27.289 11.7247C27.9932 12.1607 28.2111 13.0848 27.7753 13.7891C27.3393 14.4934 26.4152 14.7112 25.7108 14.2755L15.9999 8.26374L6.28896 14.2755C5.58463 14.7112 4.66048 14.4934 4.22451 13.7891C3.78877 13.0848 4.0066 12.1607 4.71084 11.7247L14.6845 5.55085L14.8378 5.46296Z" fill="#343434"/>
</svg>
