<svg width="32" height="32" viewBox="0 0 32 32" fill="none" xmlns="http://www.w3.org/2000/svg">
<path d="M14.5 5C19.7467 5 24 9.25329 24 14.5C24 16.5819 23.3281 18.5059 22.1924 20.0713L27.1318 25.0107C27.7174 25.5965 27.7175 26.5461 27.1318 27.1318C26.5461 27.7176 25.5965 27.7174 25.0107 27.1318L20.0713 22.1924C18.5059 23.3281 16.5819 24 14.5 24C9.25329 24 5 19.7467 5 14.5C5 9.25329 9.25329 5 14.5 5ZM14.5 8C10.9101 8 8 10.9101 8 14.5C8 18.0899 10.9101 21 14.5 21C18.0899 21 21 18.0899 21 14.5C21 10.9101 18.0899 8 14.5 8Z" fill="#C0C0C0"/>
</svg>
